<svg width="93" height="93" viewBox="0 0 93 93" fill="none" xmlns="http://www.w3.org/2000/svg">
<path d="M68.4234 43.6389C68.2136 43.8448 67.9645 44.0081 67.6904 44.1195C67.4162 44.2309 67.1223 44.2883 66.8255 44.2883C66.5287 44.2883 66.2349 44.2309 65.9607 44.1195C65.6865 44.0081 65.4375 43.8448 65.2277 43.6389L48.7582 27.489V70.8571C48.7582 71.4444 48.5202 72.0075 48.0967 72.4228C47.6732 72.838 47.0987 73.0713 46.4998 73.0713C45.9008 73.0713 45.3264 72.838 44.9028 72.4228C44.4793 72.0075 44.2413 71.4444 44.2413 70.8571V27.489L27.7718 43.6389C27.348 44.0544 26.7733 44.2878 26.174 44.2878C25.5747 44.2878 24.9999 44.0544 24.5762 43.6389C24.1524 43.2234 23.9143 42.6599 23.9143 42.0723C23.9143 41.4848 24.1524 40.9213 24.5762 40.5058L44.9019 20.5779C45.1117 20.372 45.3608 20.2087 45.6349 20.0972C45.9091 19.9858 46.203 19.9285 46.4998 19.9285C46.7966 19.9285 47.0904 19.9858 47.3646 20.0972C47.6388 20.2087 47.8878 20.372 48.0976 20.5779L68.4234 40.5058C68.6334 40.7114 68.7999 40.9556 68.9136 41.2244C69.0272 41.4932 69.0857 41.7814 69.0857 42.0723C69.0857 42.3633 69.0272 42.6515 68.9136 42.9203C68.7999 43.1891 68.6334 43.4333 68.4234 43.6389Z" fill="#E11E18"/>
</svg>
